<svg width="17" height="38" viewBox="0 0 17 38" fill="none" xmlns="http://www.w3.org/2000/svg">
<path d="M4.12904 18.7432L16.7045 2.40243L16.7022 2.40048C16.9711 2.05098 17.0611 1.62745 16.9524 1.22306C16.8437 0.818668 16.5452 0.466548 16.1226 0.24416C15.7 0.0217719 15.1879 -0.0526677 14.6989 0.0372169C14.2099 0.127101 13.7841 0.373948 13.5152 0.723452L0.295255 17.9037C0.102423 18.1543 0 18.4452 0 18.7423C0 19.0393 0.102423 19.3302 0.295255 19.5808L13.5152 36.7611C13.6859 36.9832 13.9216 37.1661 14.2006 37.2927C14.4796 37.4194 14.7928 37.4856 15.111 37.4854C15.47 37.4862 15.8216 37.4015 16.1238 37.2413C16.3333 37.1313 16.5146 36.9882 16.6572 36.8202C16.7998 36.6522 16.9009 36.4626 16.9549 36.2622C17.0088 36.0619 17.0145 35.8547 16.9715 35.6525C16.9285 35.4504 16.8378 35.2572 16.7045 35.084L4.12904 18.7432Z" fill="#272727"/>
</svg>
