<svg width="17" height="38" viewBox="0 0 17 38" fill="none" xmlns="http://www.w3.org/2000/svg">
<path d="M12.871 18.7421L0.295473 35.0829L0.297835 35.0849C0.0289252 35.4344 -0.0610865 35.8579 0.0475999 36.2623C0.156288 36.6667 0.454771 37.0188 0.877386 37.2412C1.3 37.4636 1.81214 37.538 2.30112 37.4481C2.7901 37.3582 3.21588 37.1114 3.48479 36.7619L16.7047 19.5816C16.8976 19.331 17 19.0401 17 18.7431C17 18.4461 16.8976 18.1552 16.7047 17.9046L3.48479 0.724277C3.31413 0.502128 3.07836 0.319243 2.79936 0.192618C2.52037 0.0659894 2.2072 -0.000279527 1.88895 -3.15941e-05C1.53003 -0.000867038 1.17842 0.0838574 0.876211 0.24401C0.666681 0.354037 0.485434 0.497145 0.342829 0.665149C0.200226 0.833148 0.0990659 1.02275 0.0451299 1.22311C-0.00880617 1.42346 -0.0144558 1.63065 0.0284996 1.83281C0.0714569 2.03498 0.162178 2.22816 0.295477 2.40131L12.871 18.7421Z" fill="#272727"/>
</svg>
