<svg width="45" height="46" viewBox="0 0 45 46" fill="none" xmlns="http://www.w3.org/2000/svg">
<path d="M2.9999 46L41.9987 46C42.7943 46 43.5574 45.6839 44.12 45.1213C44.6825 44.5588 44.9986 43.7957 44.9986 43.0001L44.9986 4.0013C44.9986 3.20567 44.6825 2.44264 44.12 1.88004C43.5574 1.31745 42.7943 1.00139 41.9987 1.00139C41.2031 1.00139 40.44 1.31745 39.8774 1.88004C39.3149 2.44264 38.9988 3.20567 38.9988 4.0013L38.9988 35.7591L6.12262 0.879141C5.55972 0.316237 4.79625 1.97789e-07 4.00019 1.74854e-07C3.20412 1.51919e-07 2.44065 0.316236 1.87775 0.879141C1.31485 1.44205 0.998609 2.20551 0.998609 3.00158C0.998609 3.79764 1.31485 4.56111 1.87775 5.12401L34.7577 40.0002L2.9999 40.0002C2.20428 40.0002 1.44124 40.3162 0.878651 40.8788C0.316059 41.4414 -1.84482e-06 42.2045 -1.87959e-06 43.0001C-1.91437e-06 43.7957 0.316059 44.5588 0.878651 45.1213C1.44124 45.6839 2.20428 46 2.9999 46Z" fill="#141414"/>
</svg>
