<svg width="46" height="45" viewBox="0 0 46 45" fill="none" xmlns="http://www.w3.org/2000/svg">
<path d="M46 41.9986V2.99982C46 2.2042 45.6839 1.44117 45.1213 0.878578C44.5588 0.315987 43.7957 -7.62939e-05 43.0001 -7.62939e-05H4.0013C3.20567 -7.62939e-05 2.44263 0.315987 1.88004 0.878578C1.31745 1.44117 1.00139 2.2042 1.00139 2.99982C1.00139 3.79545 1.31745 4.55849 1.88004 5.12109C2.44263 5.68368 3.20567 5.99974 4.0013 5.99974H35.7591L0.879141 38.8759C0.316236 39.4388 -1.18623e-08 40.2023 0 40.9984C1.18623e-08 41.7944 0.316236 42.5579 0.879141 43.1208C1.44205 43.6837 2.20551 43.9999 3.00158 43.9999C3.79764 43.9999 4.56111 43.6837 5.12401 43.1208L40.0002 10.2409V41.9986C40.0002 42.7943 40.3162 43.5573 40.8788 44.1199C41.4414 44.6825 42.2045 44.9985 43.0001 44.9985C43.7957 44.9985 44.5588 44.6825 45.1213 44.1199C45.6839 43.5573 46 42.7943 46 41.9986Z" fill="#272727"/>
</svg>
