<svg width="35" height="19" viewBox="0 0 35 19" fill="none" xmlns="http://www.w3.org/2000/svg">
<path d="M33.5919 18.9985H29.7613C28.3121 18.9985 27.8754 17.9258 25.2775 15.5503C23.007 13.5508 22.0481 13.3022 21.4738 13.3022C20.6794 13.3022 20.4628 13.5017 20.4628 14.5007V17.6496C20.4628 18.5013 20.1605 19 17.7255 19C15.3631 18.855 13.0723 18.1992 11.0416 17.0866C9.01098 15.9741 7.29864 14.4366 6.04564 12.6009C3.07049 9.21718 1.0004 5.24582 0 1.00262C0 0.477797 0.218315 0.00208211 1.31325 0.00208211H5.14215C6.12625 0.00208211 6.48059 0.402604 6.86684 1.32795C8.72587 6.32756 11.8982 10.6765 13.1862 10.6765C13.6799 10.6765 13.8949 10.477 13.8949 9.35219V4.20219C13.732 1.85277 12.3667 1.65481 12.3667 0.80466C12.384 0.580369 12.4962 0.371066 12.6797 0.221208C12.8631 0.071349 13.1033 -0.00725849 13.3491 0.00208211H19.3679C20.1908 0.00208211 20.4628 0.376516 20.4628 1.27577V8.22735C20.4628 8.97775 20.8155 9.22635 21.064 9.22635C21.5577 9.22635 21.9373 8.97775 22.8424 8.15216C24.7827 5.98993 26.3678 3.58095 27.548 1.00108C27.6688 0.691337 27.8971 0.426197 28.1982 0.246104C28.4993 0.0660117 28.8566 -0.0191475 29.2155 0.00361656H33.0461C34.1948 0.00361656 34.4383 0.528438 34.1948 1.27731C32.8016 4.12917 31.0777 6.83627 29.0526 9.35219C28.6395 9.92765 28.475 10.2269 29.0526 10.9021C29.4322 11.4269 30.7757 12.452 31.6775 13.4265C32.9907 14.6234 34.0806 16.0076 34.9052 17.5237C35.2343 18.4997 34.6852 18.9985 33.5919 18.9985Z" fill="white"/>
</svg>
